<?xml version="1.0" standalone="no"?>
<!DOCTYPE svg PUBLIC "-//W3C//DTD SVG 20010904//EN"
 "http://www.w3.org/TR/2001/REC-SVG-20010904/DTD/svg10.dtd">
<svg version="1.0" xmlns="http://www.w3.org/2000/svg"
 width="1486.000000pt" height="486.000000pt" viewBox="0 0 1486.000000 486.000000"
 preserveAspectRatio="xMidYMid meet">

<g transform="translate(0.000000,486.000000) scale(0.100000,-0.100000)"
fill="#ffffff" stroke="yellow">
<path d="M6610 4294 c-1873 -6 -3768 -12 -4212 -13 l-808 -1 0 -141 0 -142
817 7 c450 3 1975 8 3388 11 1414 3 2729 8 2923 11 265 5 352 3 352 -6 0 -6
-27 -74 -60 -152 l-60 -140 0 -714 0 -714 160 0 160 0 0 723 0 723 -55 128
c-30 70 -55 134 -55 142 0 12 166 14 1228 14 675 0 1406 3 1625 7 l397 6 0
134 0 133 -1197 -2 c-659 -1 -2730 -7 -4603 -14z m5760 -119 l0 -105 -327 0
c-181 0 -2211 -7 -4513 -15 -2302 -8 -4573 -15 -5047 -15 l-863 0 0 100 c0 55
1 101 3 101 2 2 8679 33 10180 37 l567 2 0 -105z m-3189 -305 l54 -125 3 -702
3 -703 -126 0 -125 0 0 699 0 698 51 119 c28 66 55 130 61 144 12 31 9 35 79
-130z"/>
<path d="M1580 3015 l0 -715 160 0 160 0 0 280 0 280 395 0 395 0 0 -280 0
-280 160 0 160 0 0 715 0 715 -160 0 -160 0 0 -275 0 -275 -395 0 -395 0 0
275 0 275 -160 0 -160 0 0 -715z m290 410 l0 -275 425 0 425 0 0 275 0 275
130 0 130 0 0 -680 0 -680 -130 0 -130 0 0 275 0 275 -425 0 -425 0 0 -275 0
-275 -130 0 -130 0 0 680 0 680 130 0 130 0 0 -275z"/>
<path d="M3230 3015 l0 -715 160 0 160 0 0 715 0 715 -160 0 -160 0 0 -715z
m280 5 l0 -680 -125 0 -125 0 0 680 0 680 125 0 125 0 0 -680z"/>
<path d="M3993 3711 c-75 -27 -135 -72 -177 -134 -67 -98 -69 -111 -74 -506
-4 -373 3 -480 37 -556 44 -99 154 -181 276 -205 42 -8 206 -10 535 -8 471 3
475 3 511 25 70 44 71 47 67 425 l-3 337 -30 32 c-56 59 -55 59 -515 59 l-420
0 0 -160 0 -160 328 -2 327 -3 0 -115 0 -115 -375 -3 c-313 -2 -379 0 -395 12
-19 14 -20 30 -23 371 -2 310 -1 361 13 381 l15 24 535 0 535 0 0 160 0 160
-557 0 c-518 -1 -562 -2 -610 -19z m1137 -136 l0 -125 -497 0 c-312 0 -512 -4
-535 -10 -69 -20 -68 -13 -68 -418 0 -371 2 -391 39 -419 12 -9 118 -12 419
-13 l402 0 0 150 0 150 -327 2 -328 3 0 125 0 125 410 0 c386 0 412 -1 438
-19 56 -38 57 -47 57 -386 0 -344 -1 -352 -62 -384 -30 -16 -72 -17 -543 -14
l-510 3 -56 28 c-74 36 -140 108 -168 180 -20 56 -21 73 -21 462 0 382 1 407
20 459 40 106 106 170 213 207 47 17 99 18 585 19 l532 0 0 -125z"/>
<path d="M5360 3015 l0 -715 160 0 160 0 0 280 0 280 395 0 395 0 0 -280 0
-280 160 0 160 0 0 715 0 715 -160 0 -160 0 0 -275 0 -275 -395 0 -395 0 0
275 0 275 -160 0 -160 0 0 -715z m290 410 l0 -275 425 0 425 0 2 273 3 272
128 3 127 3 0 -681 0 -680 -125 0 -125 0 -1 253 c-1 138 -2 262 -2 275 l-1 22
-428 0 -428 0 0 -275 0 -275 -130 0 -130 0 0 680 0 680 130 0 130 0 0 -275z"/>
<path d="M6930 3713 c0 -47 234 -1313 248 -1343 9 -19 33 -45 52 -58 30 -20
45 -23 97 -20 52 3 68 9 92 32 16 15 123 182 237 372 115 189 212 344 216 344
3 0 102 -158 220 -351 244 -402 245 -404 348 -397 49 4 65 9 91 34 17 16 35
37 40 47 6 10 62 307 124 660 63 353 117 654 121 670 l6 28 -164 -3 -163 -3
-61 -335 c-34 -184 -67 -368 -74 -408 -6 -39 -15 -70 -20 -67 -4 2 -83 127
-176 276 -97 156 -181 280 -197 291 -31 22 -101 34 -141 24 -48 -12 -83 -57
-251 -324 -93 -149 -172 -268 -176 -264 -3 4 -32 151 -63 327 -32 176 -65 357
-73 403 l-15 82 -159 0 c-142 0 -159 -2 -159 -17z m299 -65 c13 -63 151 -829
151 -837 0 -2 86 132 191 300 105 167 196 312 202 322 16 23 68 47 104 47 62
0 84 -27 284 -349 107 -171 196 -311 199 -311 3 0 41 198 84 440 l79 440 129
0 c70 0 128 -2 128 -3 0 -2 -52 -293 -115 -647 -69 -383 -122 -654 -132 -670
-34 -58 -110 -77 -169 -41 -23 14 -91 118 -260 395 -174 286 -231 373 -240
363 -6 -6 -107 -169 -224 -362 -117 -192 -225 -363 -240 -379 -57 -58 -164
-38 -194 37 -8 17 -62 300 -121 627 -59 327 -110 614 -115 638 l-7 42 128 0
128 0 10 -52z"/>
<path d="M9574 3716 c-17 -8 -42 -29 -55 -47 l-24 -34 -3 -667 -2 -668 160 0
160 0 0 555 0 555 395 0 395 0 0 -103 c0 -129 -21 -178 -89 -214 -43 -23 -50
-23 -363 -23 l-318 0 0 -160 0 -160 100 0 99 0 53 -46 c29 -26 82 -73 118
-104 36 -32 128 -112 205 -179 l140 -121 250 0 c137 0 245 4 240 8 -6 5 -121
104 -257 220 -135 116 -249 215 -252 220 -3 6 10 13 28 16 95 18 235 117 291
206 54 86 68 151 69 330 1 208 -10 246 -99 336 -97 98 -70 94 -684 94 -419 -1
-532 -4 -557 -14z m1155 -51 c65 -36 105 -83 131 -153 29 -77 29 -331 0 -423
-27 -89 -78 -160 -154 -213 -69 -50 -118 -70 -209 -89 l-59 -12 238 -205 c131
-113 245 -210 253 -217 13 -10 -24 -12 -179 -13 l-195 0 -255 220 -255 219
-90 3 -90 3 -3 122 -3 122 303 3 303 3 55 27 c34 17 64 41 80 64 23 34 25 48
28 168 3 115 2 132 -14 143 -14 10 -108 13 -431 13 l-413 0 0 -555 0 -555
-125 0 -125 0 0 630 c0 696 -2 670 63 711 31 19 50 19 562 17 l530 -3 54 -30z"/>
<path d="M11171 3712 c-19 -9 -44 -30 -55 -45 -21 -28 -21 -38 -21 -565 l0
-537 23 -47 c54 -108 157 -185 276 -207 38 -7 234 -11 528 -11 l468 0 0 160 0
160 -474 0 c-418 0 -476 2 -490 16 -14 13 -16 63 -16 395 l0 379 490 0 490 0
0 160 0 160 -592 0 c-545 0 -596 -1 -627 -18z m1189 -137 l0 -125 -495 0 -495
0 0 -389 c0 -246 4 -400 10 -417 21 -55 9 -53 513 -54 l467 0 0 -125 0 -126
-497 3 -498 3 -57 28 c-64 31 -125 95 -160 165 -23 47 -23 48 -26 554 -3 562
-5 548 61 588 31 19 54 20 605 20 l572 0 0 -125z"/>
<path d="M11430 3020 l0 -160 425 0 425 0 0 160 0 160 -425 0 -425 0 0 -160z
m818 -3 l3 -127 -393 2 -393 3 -3 114 c-1 63 0 121 2 128 4 11 79 13 393 11
l388 -3 3 -128z"/>
</g>
</svg>
